<?xml version="1.0" encoding="UTF-8"?>
<svg id="_Слой_1" data-name="Слой_1" xmlns="http://www.w3.org/2000/svg" version="1.1" viewBox="0 0 77.8 76">
  <!-- Generator: Adobe Illustrator 29.0.1, SVG Export Plug-In . SVG Version: 2.1.0 Build 192)  -->
  <defs>
    <style>
      .st0 {
        fill: #b9519f;
      }

      .st1 {
        fill: #cc5748;
      }

      .st2 {
        fill: #2c3691;
      }

      .st3 {
        fill: #f5ef5b;
      }

      .st4 {
        fill: #c3262e;
      }

      .st5 {
        fill: #69bd45;
      }

      .st6 {
        fill: #e1cde1;
      }
    </style>
  </defs>
  <path class="st6" d="M62.4,24.85c-2.77-8.51-12.29-8.93-16.64-7.3s-7.3,6.48-7.3,6.48c0,0-2.95-4.85-7.3-6.48s-13.88-1.22-16.64,7.3c-2.77,8.51-.05,16.81,7.42,22.71,7.47,5.9,16.53,14.71,16.53,14.71,0,0,9.06-8.81,16.53-14.71,7.47-5.9,10.18-14.2,7.42-22.71h0Z"/>
  <path class="st4" d="M57.46,19.66c-.49-.21-1.35-.38-2.07-.5-.36-.06-.7-.11-.94-.14-.12-.02-.22-.03-.29-.04-.03,0-.06,0-.08,0,0,0-.02,0-.02,0,0,0,0,0,0,0,0,0,0,0,0,0,0,0,0,0,0,0,0,0,0,0,0,0t-.02.13-.02.13s0,0,0,0c0,0,0,0,0,0,0,0,0,0,0,0,0,0,0,0,0,0,0,0,.01,0,.02,0,.02,0,.04,0,.08,0,.07,0,.17.02.29.04.24.03.57.08.93.14.72.12,1.55.28,2.01.48l.1-.25ZM60.1,22.49c-.69-1.72-1.66-2.42-2.64-2.83l-.1.25c.92.39,1.83,1.04,2.49,2.68l.25-.1ZM60.35,26.55q.13.02.13.02s0,0,0,0c0,0,0,0,0,0,0,0,0,0,0,0,0,0,0,0,0,0,0,0,0-.01,0-.02,0-.02,0-.04,0-.08,0-.07.02-.17.02-.29.02-.25.03-.6.03-1-.01-.8-.11-1.82-.45-2.69l-.25.1c.33.82.42,1.8.43,2.59,0,.39-.01.73-.03.97,0,.12-.02.22-.02.28,0,.03,0,.06,0,.08,0,0,0,.01,0,.02,0,0,0,0,0,0,0,0,0,0,0,0,0,0,0,0,0,0t0,0s0,0,.13.02ZM54.06,18.98c-.07,0-.14.04-.15.12,0,.07.04.14.12.15l.03-.27ZM60.22,26.53c0,.07.04.14.12.15.07,0,.14-.04.15-.12l-.27-.03Z"/>
  <path class="st3" d="M60.47,26.19l-1.58.55c-.12.04-.25-.02-.3-.14-.03-.09,0-.18.06-.24.79-.77,1.19-1.91.97-3.11-.3-1.59-1.7-2.78-3.32-2.81-2.09-.03-3.7,1.75-3.5,3.78.16,1.66,1.47,2.93,3.06,3.11.09,0,.17.07.2.15.04.12-.02.25-.14.3l-1.58.55c-1.52.53-2.33,2.2-1.8,3.72l.89,2.55c.13.2.25.42.33.66.11.29.17.59.2.88l.73,2.1.4-.22c1.41-.77,3.19-.26,3.97,1.15l1.36,2.47c2.9-4.56,3.77-9.83,2.44-15.23-.7-.39-1.56-.49-2.37-.21h0Z"/>
  <path class="st4" d="M61.4,33.43c.02-.49.08-1.12.14-1.63.03-.26.06-.48.08-.64.01-.08.02-.14.02-.19,0-.02,0-.04,0-.05,0,0,0-.01,0-.01,0,0,0,0,0,0,0,0,0,0,0,0,0,0,0,0,0,0,0,0,0,0,0,0s0,0-.13-.02q-.13-.02-.13-.02s0,0,0,0c0,0,0,0,0,0,0,0,0,0,0,0,0,0,0,0,0,0,0,0,0,0,0,.01,0,.01,0,.03,0,.05,0,.04-.01.11-.02.19-.02.16-.05.39-.08.64-.06.51-.12,1.15-.14,1.65h.27ZM61,36.46c.25-1.2.36-2.03.4-3.03h-.27c-.04.97-.15,1.78-.4,2.97l.26.06ZM58.92,39.72q.1.08.1.08s0,0,0,0c0,0,0,0,0,0,0,0,0,0,0,0,0,0,0,0,0,0,0,0,0-.01.01-.02.01-.02.03-.04.05-.07.05-.06.11-.15.2-.26.16-.22.38-.52.61-.86.23-.34.47-.72.66-1.09.2-.37.36-.74.42-1.06l-.26-.06c-.06.28-.2.62-.4.98-.19.36-.42.73-.65,1.06-.23.33-.44.63-.6.85-.08.11-.15.19-.19.25-.02.03-.04.05-.05.07,0,0-.01.01-.01.02,0,0,0,0,0,0,0,0,0,0,0,0,0,0,0,0,0,0,0,0,0,0,0,0t.1.08ZM61.65,30.9c0-.07-.04-.14-.12-.15-.07,0-.14.04-.15.12l.27.04ZM58.82,39.64c-.05.06-.04.14.02.19.06.05.14.04.19-.02l-.21-.17Z"/>
  <path class="st5" d="M59.05,39.16c-.77-1.41-2.56-1.93-3.97-1.15l-.4.22-1.07.59c-.11.06-.25.02-.31-.09-.04-.08-.04-.18.02-.25.48-.66.72-1.49.64-2.34l-.53-1.54c-.72-1.12-2.06-1.76-3.41-1.55-2.07.32-3.35,2.35-2.82,4.31.43,1.61,1.94,2.64,3.54,2.55.09,0,.18.04.22.12.06.11.02.25-.09.31l-1.46.81c-1.41.77-1.93,2.56-1.15,3.97l3.02,5.49c1.25-1.06,2.5-2.1,3.72-3.05.82-.65,1.58-1.32,2.28-2.02,1.23-1.22,2.28-2.53,3.15-3.9l-1.36-2.47h0Z"/>
  <path class="st4" d="M50.49,44.43c1.26-1.09,2.78-1.91,4.09-2.44.66-.26,1.26-.45,1.74-.56.24-.05.46-.09.63-.1.18-.01.31,0,.39.01l.07-.26c-.13-.03-.29-.04-.48-.02-.19.02-.42.05-.67.11-.5.11-1.12.3-1.78.57-1.33.53-2.88,1.37-4.17,2.49l.18.2ZM46.28,49.73q.12.06.12.06s0,0,0,0c0,0,0,0,0,0,0,0,0,0,0,0,0,0,0,0,0,0,0,0,0-.01.01-.03.01-.02.03-.06.05-.1.05-.09.12-.22.21-.39.19-.33.46-.8.81-1.33.71-1.07,1.73-2.41,2.99-3.5l-.18-.2c-1.28,1.11-2.32,2.48-3.04,3.56-.36.54-.64,1.01-.83,1.35-.09.17-.17.3-.22.4-.02.05-.04.08-.06.11,0,.01-.01.02-.01.03,0,0,0,0,0,0,0,0,0,0,0,0,0,0,0,0,0,0,0,0,0,0,0,0t.12.06ZM57.34,41.35c.07.02.15-.03.16-.1.02-.07-.03-.15-.1-.16l-.07.26ZM46.16,49.67c-.03.07,0,.15.06.18.07.03.15,0,.18-.06l-.24-.12Z"/>
  <path class="st2" d="M45.09,49.6l-1.62.4c-.12.03-.25-.05-.28-.17-.02-.09.01-.18.08-.24.85-.7,1.37-1.79,1.26-3-.15-1.61-1.43-2.93-3.04-3.11-2.08-.23-3.84,1.39-3.84,3.43,0,1.67,1.18,3.06,2.75,3.38.09.02.16.08.18.17.03.12-.05.25-.17.28l-1.62.4c-1.56.38-2.53,1.97-2.15,3.53l1.84,7.55c.4-.39,5.08-4.91,10.37-9.54l-.23-.93c-.38-1.56-1.97-2.53-3.53-2.15Z"/>
  <path class="st4" d="M34.32,52.38c2.38,1,5.11,1.67,10.75.72l-.04-.27c-5.6.94-8.27.27-10.6-.71l-.1.25ZM31.16,49.04q-.13.05-.13.05s0,0,0,0c0,0,0,0,0,0,0,0,0,0,0,0,0,0,0,0,0,0,0,0,0,.01,0,.02,0,.02.02.04.03.08.03.07.07.16.13.27.12.23.31.55.57.89.52.69,1.34,1.52,2.55,2.02l.1-.25c-1.15-.48-1.93-1.27-2.43-1.93-.25-.33-.43-.64-.54-.86-.06-.11-.1-.2-.13-.26-.01-.03-.02-.05-.03-.07,0,0,0-.01,0-.02,0,0,0,0,0,0,0,0,0,0,0,0,0,0,0,0,0,0,0,0,0,0,0,0t-.13.05ZM45.07,53.1c.07-.01.12-.08.11-.16-.01-.07-.08-.12-.16-.11l.04.27ZM31.28,48.99c-.03-.07-.1-.1-.17-.08-.07.03-.1.1-.08.17l.25-.1Z"/>
  <path class="st4" d="M16.1,24.22c-.15.94-.1,1.82-.02,2.46.04.32.09.58.13.77.02.09.04.16.05.21,0,.02.01.04.02.06,0,0,0,.01,0,.01,0,0,0,0,0,0,0,0,0,0,0,0,0,0,0,0,0,0,0,0,0,0,0,0t.13-.04.13-.04s0,0,0,0c0,0,0,0,0,0,0,0,0,0,0,0,0,0,0,0,0,0,0,0,0,0,0-.01,0-.01,0-.03-.01-.05-.01-.05-.03-.11-.05-.2-.04-.18-.09-.43-.13-.74-.08-.62-.12-1.47.02-2.38l-.27-.04ZM18.78,20.91q-.07-.11-.07-.11s0,0,0,0c0,0,0,0,0,0,0,0,0,0,0,0,0,0,0,0,0,0,0,0-.01,0-.02.01-.02.01-.04.03-.07.05-.06.04-.15.11-.26.2-.22.17-.51.42-.82.72-.61.61-1.27,1.46-1.42,2.43l.27.04c.14-.88.75-1.69,1.35-2.28.29-.3.58-.53.79-.7.11-.08.19-.15.25-.19.03-.02.05-.04.07-.05,0,0,.01,0,.02-.01,0,0,0,0,0,0,0,0,0,0,0,0,0,0,0,0,0,0h0s0,0-.07-.11ZM16.29,27.73c.02.07.1.11.17.09.07-.02.11-.1.09-.17l-.26.08ZM18.86,21.02c.06-.04.08-.12.04-.19s-.12-.08-.19-.04l.15.23Z"/>
  <path class="st1" d="M33.12,43.73l-1.11-1.25c-.08-.1-.08-.24.02-.33.07-.06.16-.07.25-.04,1.02.43,2.23.37,3.24-.3,1.36-.89,1.91-2.64,1.31-4.15-.78-1.95-3.04-2.74-4.84-1.78-1.47.78-2.14,2.48-1.69,4.02.03.09,0,.18-.07.24-.1.08-.24.08-.33-.02l-1.11-1.25c-1.07-1.2-2.93-1.3-4.13-.23l-6.23,5.57c1.01,1.17,2.18,2.28,3.49,3.31,1.9,1.5,3.91,3.2,5.85,4.89l5.12-4.57c1.2-1.07,1.3-2.93.23-4.13h0Z"/>
  <path class="st0" d="M18.11,43.84l5.09-9.43c.76-1.41.23-3.2-1.18-3.96l-1.47-.79c-.11-.06-.15-.2-.09-.31.04-.08.13-.13.22-.12,1.1.06,2.22-.41,2.95-1.38.97-1.3.9-3.13-.18-4.35-1.39-1.57-3.79-1.54-5.15-.03-1.12,1.24-1.17,3.06-.22,4.35.05.07.06.17.02.25-.06.11-.2.15-.31.09l-1.47-.79c-.78-.42-1.66-.45-2.43-.15-1.24,6.01.26,11.82,4.23,16.62h0Z"/>
  <path class="st4" d="M27.55,34.48c.69.72,1.24,1.76,1.69,2.91.45,1.15.78,2.41,1.03,3.58.25,1.17.4,2.25.5,3.04.05.39.08.71.1.93.01.11.02.2.02.25,0,.03,0,.05,0,.07,0,0,0,.01,0,.02,0,0,0,0,0,0,0,0,0,0,0,0,0,0,0,0,0,0t.13,0,.13,0s0,0,0,0c0,0,0,0,0,0,0,0,0,0,0,0,0,0,0,0,0-.02,0-.02,0-.04,0-.07,0-.06-.01-.15-.02-.26-.02-.22-.05-.55-.1-.94-.1-.79-.26-1.88-.5-3.06-.25-1.18-.58-2.46-1.04-3.62-.45-1.17-1.02-2.24-1.75-3l-.2.19ZM21.64,32.18q.03.13.03.13s0,0,0,0c0,0,0,0,0,0,0,0,0,0,0,0,0,0,0,0,0,0,0,0,.01,0,.02,0,.02,0,.06-.01.1-.02.09-.01.22-.03.39-.04.34-.02.81-.03,1.38.06,1.13.18,2.6.72,3.99,2.17l.2-.19c-1.43-1.51-2.96-2.07-4.14-2.26-.59-.09-1.08-.09-1.44-.07-.18.01-.32.03-.41.05-.05,0-.09.01-.11.02-.01,0-.02,0-.03,0,0,0,0,0,0,0,0,0,0,0,0,0,0,0,0,0,0,0,0,0,0,0,0,0t.03.13ZM30.9,45.28c0,.07.07.13.14.12.07,0,.13-.07.12-.14l-.27.02ZM21.61,32.05c-.07.02-.12.09-.1.16s.09.12.16.1l-.06-.26Z"/>
</svg>